HIERARCHY
ROOT hip
{
	OFFSET 0.000000 0.000000 0.000000 
	CHANNELS 6 Xposition Yposition Zposition Xrotation Zrotation Yrotation
	JOINT abdomen
	{
		OFFSET 0.000000 3.402643 0.000000 
		CHANNELS 3 Xrotation Zrotation Yrotation
		JOINT chest
		{
			OFFSET 0.000000 8.438565 -0.680529 
			CHANNELS 3 Xrotation Zrotation Yrotation
			JOINT neck
			{
				OFFSET 0.000000 10.207942 -0.272212 
				CHANNELS 3 Xrotation Zrotation Yrotation
				JOINT head
				{
					OFFSET 0.000000 3.130431 0.000000 
					CHANNELS 3 Xrotation Zrotation Yrotation
					End Site
					{
						OFFSET 0.000000 3.130435 0.000000 
					}
				}
			}
			JOINT lCollar
			{
				OFFSET 3.470700 6.669187 -0.816635 
				CHANNELS 3 Yrotation Zrotation Xrotation
				JOINT lShldr
				{
					OFFSET 3.198488 0.000000 0.000000 
					CHANNELS 3 Zrotation Yrotation Xrotation
					JOINT lForeArm
					{
						OFFSET 10.139888 0.000000 0.000000 
						CHANNELS 3 Yrotation Zrotation Xrotation
						JOINT lHand
						{
							OFFSET 8.370511 0.000000 0.000000 
							CHANNELS 3 Zrotation Yrotation Xrotation
							End Site
							{
								OFFSET 4.083176 0.000000 0.000000 
							}
						}
					}
				}
			}
			JOINT rCollar
			{
				OFFSET -3.470700 6.669187 -0.816635 
				CHANNELS 3 Yrotation Zrotation Xrotation
				JOINT rShldr
				{
					OFFSET -3.198488 0.000000 0.000000 
					CHANNELS 3 Zrotation Yrotation Xrotation
					JOINT rForeArm
					{
						OFFSET -10.139888 0.000000 0.000000 
						CHANNELS 3 Yrotation Zrotation Xrotation
						JOINT rHand
						{
							OFFSET -8.370511 0.000000 0.000000 
							CHANNELS 3 Zrotation Yrotation Xrotation
							End Site
							{
								OFFSET -4.083176 0.000000 0.000000 
							}
						}
					}
				}
			}
		}
	}
	JOINT lThigh
	{
		OFFSET 5.308129 -1.633274 1.361059 
		CHANNELS 3 Xrotation Zrotation Yrotation
		JOINT lShin
		{
			OFFSET -2.041588 -20.007561 0.000000 
			CHANNELS 3 Xrotation Zrotation Yrotation
			JOINT lFoot
			{
				OFFSET 0.000000 -19.190928 -1.224953 
				CHANNELS 3 Xrotation Yrotation Zrotation
				End Site
				{
					OFFSET 0.000000 -2.449906 4.627600 
				}
			}
		}
	}
	JOINT rThigh
	{
		OFFSET -5.308129 -1.633274 1.361059 
		CHANNELS 3 Xrotation Zrotation Yrotation
		JOINT rShin
		{
			OFFSET 2.041588 -20.007561 0.000000 
			CHANNELS 3 Xrotation Zrotation Yrotation
			JOINT rFoot
			{
				OFFSET 0.000000 -19.190928 -1.224953 
				CHANNELS 3 Xrotation Yrotation Zrotation
				End Site
				{
					OFFSET 0.000000 -2.449906 4.627600 
				}
			}
		}
	}
}
MOTION
Frames: 6
Frame Time: 0.033333
0.230028 48.912491 2.743724 1.369938 -2.967367 -1.750758 0.000000 0.000000 0.000000 -1.538655 2.529293 0.097992 4.669542 0.449144 -1.044890 9.910871 1.805300 -2.208089 -1.309737 2.859460 -0.762514 -32.105247 19.185879 -15.286889 -33.856445 0.742815 -3.203670 -1.436509 -6.431532 -3.227564 1.645523 0.306830 -0.878585 36.520161 -28.211535 -22.758982 40.069523 -4.176403 2.662082 -0.677133 4.792480 -3.433186 9.451044 9.480996 9.177436 1.802565 -0.806592 16.854046 -8.813470 0.714141 -8.968994 8.645354 -7.661454 -10.484334 -0.478223 2.623971 -13.748348 -4.929203 -0.524452 11.036721 
0.350130 48.918297 2.655356 1.304939 -3.377315 -1.761087 0.000000 0.000000 0.000000 -1.319030 2.666000 0.195555 4.604210 0.283156 -1.044909 10.374098 3.287450 -2.670026 -1.769441 0.808544 -0.566216 -36.392830 19.963623 -14.455215 -36.979633 0.699850 -2.317087 -4.118043 -5.320785 -3.070388 2.223089 2.062351 -0.712953 42.117859 -29.633995 -21.370630 42.705162 -3.535502 2.011303 -1.329966 3.402858 -3.481684 9.077864 9.870093 9.408341 2.550743 -0.911036 16.319561 -9.199877 0.688395 -8.775127 8.654753 -7.514911 -10.532289 -0.556309 2.829445 -13.532350 -4.744322 -0.508811 11.037445 
0.521284 48.932407 2.509950 1.318564 -3.318570 -1.859140 0.000000 0.000000 0.000000 -1.127772 2.480425 0.342322 4.526398 -0.234323 -1.201202 10.939383 4.797025 -3.243137 -2.032805 -1.468830 -0.439284 -41.845341 19.781219 -14.974936 -38.595966 1.005624 -1.969064 -6.054805 -3.489149 -3.032638 2.595841 2.816720 -0.556843 48.106308 -29.806009 -18.361637 44.188698 -2.593427 -2.324206 -1.682894 0.963763 -3.505723 8.550697 9.654828 9.128352 3.148094 -0.952617 16.642084 -9.370624 0.703427 -8.513604 8.149834 -7.936216 -10.710441 0.322179 2.858045 -12.636932 -5.124736 -0.542671 11.279414 
0.695171 48.957325 2.400211 0.743300 -3.806759 -1.781850 0.000000 0.000000 0.000000 -0.499345 2.607358 0.400865 4.848619 -0.185483 -1.503930 11.189112 5.632844 -3.699304 -2.816788 -2.925206 0.107650 -46.797501 20.147245 -12.722813 -39.758011 -0.527901 -8.857313 -4.448948 -1.224028 -3.244564 2.881539 3.983885 -0.010408 52.780380 -30.097727 -14.598899 44.184273 -2.212119 -0.427186 -0.423773 0.698358 -3.461968 8.211899 10.058423 9.466586 4.713040 -1.053063 16.466131 -10.035978 0.740584 -8.392283 8.395116 -7.732187 -10.622489 0.635782 2.811655 -12.625628 -4.670262 -0.528220 11.514190 
0.843574 48.987057 2.272246 0.476914 -4.480935 -1.479257 0.000000 0.000000 0.000000 -0.055446 2.636717 0.068736 5.263652 0.273262 -2.050804 10.511538 5.983006 -3.799397 -3.589640 -3.936964 0.488846 -53.608326 20.139248 -14.006322 -41.026814 0.377197 -8.168401 -6.555472 1.912584 -3.402002 2.829167 5.242060 0.352337 56.271973 -30.262068 -9.245186 44.422985 -1.014645 -0.048814 -0.365101 -0.110168 -3.466169 7.719484 10.688339 9.721740 5.855185 -0.877450 15.654993 -10.497641 0.792149 -8.453155 8.274204 -7.299499 -10.303458 1.152613 2.782873 -12.943860 -3.506330 -0.371902 11.718624 
1.026024 49.041870 2.125481 0.293495 -4.724574 -1.666579 0.000000 0.000000 0.000000 0.343854 2.412109 0.049196 5.754585 -0.068309 -2.207041 9.586117 7.838584 -4.386263 -4.132514 -4.746383 0.811290 -59.003716 20.529497 -12.196614 -42.996578 -0.063446 -7.995243 -5.914007 4.987940 -3.584917 3.092543 5.916745 0.695685 59.781376 -30.459778 -4.750181 44.852287 -0.008350 0.983181 0.069989 -0.993680 -3.467629 7.488471 10.750463 9.693484 6.331286 -0.788518 15.694682 -10.614974 0.759009 -8.093142 7.925359 -7.448717 -10.314774 1.658920 2.864191 -12.365166 -2.077584 -0.236031 11.837209 
